<?xml version="1.0" encoding="UTF-8"?>
<svg width="251px" height="251px" viewBox="0 0 251 251" version="1.1" xmlns="http://www.w3.org/2000/svg" xmlns:xlink="http://www.w3.org/1999/xlink">
    <!-- Generator: Sketch 41.2 (35397) - http://www.bohemiancoding.com/sketch -->
    <title>Artboard Copy 2</title>
    <desc>Created with Sketch.</desc>
    <defs></defs>
    <g id="Page-1" stroke="none" stroke-width="1" fill="none" fill-rule="evenodd">
        <g id="Artboard-Copy-2" stroke="#FFFFFF">
            <path d="M4.08508887,7.94963792 L12.0185978,7.94963792 L12.0185978,43.4978604 L4.08508887,43.4978604 L4.08508887,7.94963792 Z M27.6313364,28.2411126 L27.6313364,43.4978604 L20.0029625,43.4978604 L20.0029625,16.1374259 L27.6313364,16.1374259 L27.6313364,19.1887755 C29.9368121,16.8493958 32.5304333,15.6797235 35.4122778,15.6797235 C38.2941224,15.6797235 40.70975,16.6968299 42.659233,18.7310731 C44.6087161,20.7653163 45.5834431,23.4775999 45.5834431,26.8680053 L45.5834431,43.4978604 L37.9550691,43.4978604 L37.9550691,28.0376893 C37.9550691,23.8335866 36.4124578,21.7315668 33.3271889,21.7315668 C31.8015065,21.7315668 30.4707924,22.2824994 29.3350066,23.3843812 C28.1992208,24.4862629 27.6313364,26.1051572 27.6313364,28.2411126 Z M54.7883476,39.7853851 C52.2455436,37.0391568 50.9741606,33.6318505 50.9741606,29.5633641 C50.9741606,25.4948776 52.21164,22.1638543 54.6866359,19.5701942 C57.1616319,16.9765341 60.060385,15.6797235 63.3829822,15.6797235 C66.7055795,15.6797235 69.4178631,16.8493958 71.5199144,19.1887755 L71.5199144,5.76283739 L79.1482883,5.76283739 L79.1482883,43.4978604 L71.5199144,43.4978604 L71.5199144,39.8870968 C69.383959,42.565517 66.6971031,43.904707 63.459266,43.904707 C60.2214288,43.904707 57.3311516,42.5316135 54.7883476,39.7853851 Z M60.6367676,35.2846445 C61.9590257,36.6916627 63.501637,37.3951613 65.2646478,37.3951613 C67.0276586,37.3951613 68.5278905,36.6916627 69.7653884,35.2846445 C71.0028864,33.8776263 71.6216261,32.0637866 71.6216261,29.8430711 C71.6216261,27.6223556 71.0028864,25.7746124 69.7653884,24.299786 C68.5278905,22.8249597 67.0107068,22.0875576 65.213792,22.0875576 C63.4168771,22.0875576 61.8742658,22.8334356 60.5859118,24.325214 C59.2975577,25.8169923 58.6533904,27.6647355 58.6533904,29.868499 C58.6533904,32.0722625 59.3145095,33.8776263 60.6367676,35.2846445 Z M104.016787,30.8856155 L104.016787,16.1374259 L111.696017,16.1374259 L111.696017,43.4978604 L104.016787,43.4978604 L104.016787,39.8870968 C102.11816,42.565517 99.6686292,43.904707 96.6681205,43.904707 C93.6676117,43.904707 91.1502735,42.9638837 89.1160303,41.0822087 C87.0817871,39.2005337 86.0646807,36.4119671 86.0646807,32.7164253 L86.0646807,16.1374259 L93.7439105,16.1374259 L93.7439105,31.038183 C93.7439105,35.2422857 95.2865218,37.3443055 98.3717907,37.3443055 C99.8974731,37.3443055 101.219711,36.7933729 102.338545,35.6914911 C103.457379,34.5896094 104.016787,32.9876669 104.016787,30.8856155 Z M136.539088,41.4636274 C134.555701,43.091022 132.038363,43.904707 128.986998,43.904707 C126.952755,43.904707 124.833783,43.5402439 122.63002,42.8113068 C120.426256,42.0823696 118.442899,41.0059321 116.679888,39.5819618 L120.036373,34.8015142 C122.884313,37.0052776 125.91868,38.1071429 129.139566,38.1071429 C130.122783,38.1071429 130.902565,37.9121975 131.478934,37.5223009 C132.055302,37.1324042 132.343483,36.6153752 132.343483,35.9711982 C132.343483,35.3270211 131.945116,34.7337091 131.148371,34.1912442 C130.351625,33.6487794 129.198905,33.1402262 127.690174,32.6655695 C126.181444,32.1909127 125.028724,31.7840702 124.231978,31.4450296 C123.435233,31.1059891 122.528313,30.6143877 121.511192,29.9702107 C119.443044,28.6818566 118.408986,26.7747822 118.408986,24.2489302 C118.408986,21.7230782 119.426093,19.6634379 121.460336,18.0699473 C123.494579,16.4764568 126.122104,15.6797235 129.342989,15.6797235 C132.563874,15.6797235 135.784711,16.7646369 139.005596,18.9344964 L136.15767,24.020079 C133.784386,22.3926844 131.419613,21.5789993 129.063282,21.5789993 C126.70695,21.5789993 125.528802,22.2231667 125.528802,23.5115207 C125.528802,24.2235059 125.901741,24.7829144 126.64763,25.189763 C127.393519,25.5966116 128.630999,26.0712613 130.360105,26.6137261 C132.089212,27.156191 133.318216,27.5715094 134.047153,27.8596939 C134.77609,28.1478783 135.649106,28.5971003 136.666228,29.2073733 C138.564855,30.3601111 139.514154,32.2841373 139.514154,34.9795095 C139.514154,37.6748818 138.522475,39.8362328 136.539088,41.4636274 Z M154.465767,21.6298552 L154.465767,33.8861093 C154.465767,34.9371349 154.736995,35.7592959 155.27946,36.3526169 C155.821925,36.9459378 156.466092,37.2425938 157.211982,37.2425938 C158.635952,37.2425938 159.839528,36.5984265 160.822745,35.3100724 L163.670671,40.6499342 C161.297388,42.8197936 158.797001,43.904707 156.169437,43.904707 C153.541873,43.904707 151.321191,43.0401666 149.507324,41.3110599 C147.693457,39.5819532 146.786537,37.2256568 146.786537,34.2421001 L146.786537,21.6298552 L143.58262,21.6298552 L143.58262,16.1374259 L146.786537,16.1374259 L146.786537,7.94963792 L154.465767,7.94963792 L154.465767,16.1374259 L161.077024,16.1374259 L161.077024,21.6298552 L154.465767,21.6298552 Z M182.131336,22.850395 C179.859765,22.850395 178.164588,23.6556042 177.045754,25.2660467 C175.92692,26.8764893 175.367512,29.0039367 175.367512,31.6484529 L175.367512,43.4978604 L167.739138,43.4978604 L167.739138,16.1374259 L175.367512,16.1374259 L175.367512,19.7481896 C176.350729,18.6293558 177.579733,17.6800566 179.054559,16.9002633 C180.529385,16.1204701 182.029617,15.7136276 183.5553,15.6797235 L183.606155,22.850395 L182.131336,22.850395 Z M196.269256,43.4978604 L188.640882,43.4978604 L188.640882,16.1374259 L196.269256,16.1374259 L196.269256,43.4978604 Z M187.979756,9.47531271 C187.979756,8.22086272 188.412027,7.16137694 189.27658,6.29682357 C190.141133,5.4322702 191.200619,5 192.455069,5 C193.709519,5 194.769005,5.4322702 195.633558,6.29682357 C196.498112,7.16137694 196.930382,8.22086272 196.930382,9.47531271 C196.930382,10.7297627 196.498112,11.7892485 195.633558,12.6538018 C194.769005,13.5183552 193.709519,13.9506254 192.455069,13.9506254 C191.200619,13.9506254 190.141133,13.5183552 189.27658,12.6538018 C188.412027,11.7892485 187.979756,10.7297627 187.979756,9.47531271 Z M226.731896,43.4978604 L219.561224,43.4978604 L219.561224,40.1922317 C217.594789,42.6672276 215.16221,43.904707 212.263413,43.904707 C209.364617,43.904707 206.932037,43.0655943 204.965602,41.3873436 C202.999167,39.709093 202.015964,37.471459 202.015964,34.6743746 C202.015964,31.8772902 203.033071,29.7837463 205.067314,28.3936801 C207.101557,27.0036139 209.881648,26.3085912 213.40767,26.3085912 L219.103522,26.3085912 L219.103522,26.1560237 C219.103522,23.2402751 217.560911,21.7824226 214.475642,21.7824226 C213.153384,21.7824226 211.754863,22.0451751 210.280036,22.570688 C208.80521,23.0962008 207.559255,23.748844 206.542133,24.5286373 L203.134793,19.5956221 C206.728622,16.98501 210.830951,15.6797235 215.441903,15.6797235 C218.7645,15.6797235 221.476783,16.5103604 223.578835,18.171659 C225.680886,19.8329576 226.731896,22.4604824 226.731896,26.054312 L226.731896,43.4978604 Z M219.052666,33.0724161 L219.052666,31.7501646 L214.272219,31.7501646 C211.220854,31.7501646 209.695194,32.6994638 209.695194,34.5980908 C209.695194,35.5813084 210.059657,36.3356623 210.788594,36.8611751 C211.517532,37.3866879 212.560066,37.6494404 213.916228,37.6494404 C215.27239,37.6494404 216.46749,37.234122 217.501564,36.4034727 C218.535637,35.5728234 219.052666,34.4624823 219.052666,33.0724161 Z M241.327518,43.4978604 L233.699144,43.4978604 L233.699144,5.76283739 L241.327518,5.76283739 L241.327518,43.4978604 Z M28.5721692,64.8092769 C31.0641171,66.9282803 32.3100724,70.1830206 32.3100724,74.5735956 C32.3100724,78.9641705 31.0302136,82.1765314 28.4704575,84.2107746 C25.9107015,86.2450179 22.0033179,87.2621242 16.7481896,87.2621242 L12.0185978,87.2621242 L12.0185978,97.1790103 L4.08508887,97.1790103 L4.08508887,61.6307878 L16.6464779,61.6307878 C22.1050306,61.6307878 26.0802212,62.6902736 28.5721692,64.8092769 Z M22.7491771,78.7946291 C23.6984906,77.7266515 24.1731402,76.1670884 24.1731402,74.1158931 C24.1731402,72.0646979 23.5544005,70.6068454 22.3169026,69.7422921 C21.0794046,68.8777387 19.1553784,68.4454685 16.5447663,68.4454685 L12.0185978,68.4454685 L12.0185978,80.3965877 L17.3584595,80.3965877 C20.0029757,80.3965877 21.7998636,79.8626068 22.7491771,78.7946291 Z M45.7614384,88.9657944 C47.0328405,90.3728126 48.6602106,91.0763112 50.6435978,91.0763112 C52.6269849,91.0763112 54.2543551,90.3728126 55.5257571,88.9657944 C56.7971591,87.5587762 57.4328506,85.7364606 57.4328506,83.4987931 C57.4328506,81.2611255 56.7971591,79.4303341 55.5257571,78.0063638 C54.2543551,76.5823936 52.6269849,75.8704191 50.6435978,75.8704191 C48.6602106,75.8704191 47.0328405,76.5823936 45.7614384,78.0063638 C44.4900364,79.4303341 43.854345,81.2611255 43.854345,83.4987931 C43.854345,85.7364606 44.4900364,87.5587762 45.7614384,88.9657944 Z M60.9927584,93.5173908 C58.24653,96.2297151 54.7968443,97.5858569 50.6435978,97.5858569 C46.4903512,97.5858569 43.0406655,96.2297151 40.2944371,93.5173908 C37.5482088,90.8050665 36.1751152,87.4655673 36.1751152,83.4987931 C36.1751152,79.5320188 37.5482088,76.1840437 40.2944371,73.4547674 C43.0406655,70.7254911 46.4903512,69.3608734 50.6435978,69.3608734 C54.7968443,69.3608734 58.24653,70.7254911 60.9927584,73.4547674 C63.7389867,76.1840437 65.1120803,79.5320188 65.1120803,83.4987931 C65.1120803,87.4655673 63.7389867,90.8050665 60.9927584,93.5173908 Z M78.385451,97.1790103 L70.757077,97.1790103 L70.757077,59.4439873 L78.385451,59.4439873 L78.385451,97.1790103 Z M93.2353522,97.1790103 L85.6069783,97.1790103 L85.6069783,59.4439873 L93.2353522,59.4439873 L93.2353522,97.1790103 Z M118.103851,84.5667654 L118.103851,69.8185758 L125.783081,69.8185758 L125.783081,97.1790103 L118.103851,97.1790103 L118.103851,93.5682467 C116.205224,96.2466669 113.755693,97.5858569 110.755184,97.5858569 C107.754676,97.5858569 105.237337,96.6450335 103.203094,94.7633586 C101.168851,92.8816836 100.151745,90.093117 100.151745,86.3975752 L100.151745,69.8185758 L107.830974,69.8185758 L107.830974,84.7193329 C107.830974,88.9234355 109.373586,91.0254553 112.458855,91.0254553 C113.984537,91.0254553 115.306775,90.4745227 116.425609,89.372641 C117.544443,88.2707592 118.103851,86.6688167 118.103851,84.5667654 Z M142.107801,75.311005 L142.107801,87.5672592 C142.107801,88.6182848 142.37903,89.4404458 142.921494,90.0337667 C143.463959,90.6270877 144.108127,90.9237437 144.854016,90.9237437 C146.277986,90.9237437 147.481562,90.2795763 148.464779,88.9912223 L151.312706,94.331084 C148.939422,96.5009435 146.439036,97.5858569 143.811471,97.5858569 C141.183907,97.5858569 138.963225,96.7213165 137.149358,94.9922098 C135.335491,93.2631031 134.428571,90.9068067 134.428571,87.9232499 L134.428571,75.311005 L131.224654,75.311005 L131.224654,69.8185758 L134.428571,69.8185758 L134.428571,61.6307878 L142.107801,61.6307878 L142.107801,69.8185758 L148.719059,69.8185758 L148.719059,75.311005 L142.107801,75.311005 Z M163.009546,97.1790103 L155.381172,97.1790103 L155.381172,69.8185758 L163.009546,69.8185758 L163.009546,97.1790103 Z M154.720046,63.1564626 C154.720046,61.9020126 155.152316,60.8425268 156.01687,59.9779734 C156.881423,59.1134201 157.940909,58.6811499 159.195359,58.6811499 C160.449809,58.6811499 161.509295,59.1134201 162.373848,59.9779734 C163.238401,60.8425268 163.670671,61.9020126 163.670671,63.1564626 C163.670671,64.4109126 163.238401,65.4703984 162.373848,66.3349517 C161.509295,67.1995051 160.449809,67.6317753 159.195359,67.6317753 C157.940909,67.6317753 156.881423,67.1995051 156.01687,66.3349517 C155.152316,65.4703984 154.720046,64.4109126 154.720046,63.1564626 Z M178.240866,88.9657944 C179.512268,90.3728126 181.139638,91.0763112 183.123025,91.0763112 C185.106412,91.0763112 186.733782,90.3728126 188.005184,88.9657944 C189.276586,87.5587762 189.912278,85.7364606 189.912278,83.4987931 C189.912278,81.2611255 189.276586,79.4303341 188.005184,78.0063638 C186.733782,76.5823936 185.106412,75.8704191 183.123025,75.8704191 C181.139638,75.8704191 179.512268,76.5823936 178.240866,78.0063638 C176.969464,79.4303341 176.333772,81.2611255 176.333772,83.4987931 C176.333772,85.7364606 176.969464,87.5587762 178.240866,88.9657944 Z M193.472186,93.5173908 C190.725957,96.2297151 187.276272,97.5858569 183.123025,97.5858569 C178.969778,97.5858569 175.520093,96.2297151 172.773864,93.5173908 C170.027636,90.8050665 168.654542,87.4655673 168.654542,83.4987931 C168.654542,79.5320188 170.027636,76.1840437 172.773864,73.4547674 C175.520093,70.7254911 178.969778,69.3608734 183.123025,69.3608734 C187.276272,69.3608734 190.725957,70.7254911 193.472186,73.4547674 C196.218414,76.1840437 197.591508,79.5320188 197.591508,83.4987931 C197.591508,87.4655673 196.218414,90.8050665 193.472186,93.5173908 Z M210.864878,81.9222625 L210.864878,97.1790103 L203.236504,97.1790103 L203.236504,69.8185758 L210.864878,69.8185758 L210.864878,72.8699254 C213.170354,70.5305457 215.763975,69.3608734 218.64582,69.3608734 C221.527664,69.3608734 223.943292,70.3779797 225.892775,72.412223 C227.842258,74.4464662 228.816985,77.1587498 228.816985,80.5491551 L228.816985,97.1790103 L221.188611,97.1790103 L221.188611,81.7188391 C221.188611,77.5147365 219.646,75.4127167 216.560731,75.4127167 C215.035048,75.4127167 213.704334,75.9636493 212.568548,77.0655311 C211.432763,78.1674128 210.864878,79.7863071 210.864878,81.9222625 Z M236.750494,96.5687404 C235.563852,95.7211391 234.97054,94.6192738 234.97054,93.2631117 C234.97054,91.9069496 235.428238,90.7966084 236.343647,89.9320551 C237.259057,89.0675017 238.360922,88.6352315 239.649276,88.6352315 C240.93763,88.6352315 242.047971,89.0590258 242.980332,89.9066272 C243.912694,90.7542285 244.378868,91.7459072 244.378868,92.881693 C244.378868,94.0174788 243.887266,95.3820965 242.904049,96.975587 L239.852699,102.213737 L234.817972,102.213737 L236.750494,96.5687404 Z M4.08508887,150.86016 L4.08508887,115.311938 L12.0185978,115.311938 L12.0185978,143.7912 L27.173634,143.7912 L27.173634,150.86016 L4.08508887,150.86016 Z M40.2181534,142.646944 C41.4895554,144.053962 43.1169256,144.757461 45.1003127,144.757461 C47.0836998,144.757461 48.71107,144.053962 49.982472,142.646944 C51.253874,141.239926 51.8895655,139.41761 51.8895655,137.179943 C51.8895655,134.942275 51.253874,133.111484 49.982472,131.687514 C48.71107,130.263543 47.0836998,129.551569 45.1003127,129.551569 C43.1169256,129.551569 41.4895554,130.263543 40.2181534,131.687514 C38.9467514,133.111484 38.3110599,134.942275 38.3110599,137.179943 C38.3110599,139.41761 38.9467514,141.239926 40.2181534,142.646944 Z M55.4494733,147.198541 C52.703245,149.910865 49.2535593,151.267007 45.1003127,151.267007 C40.9470661,151.267007 37.4973804,149.910865 34.7511521,147.198541 C32.0049237,144.486216 30.6318302,141.146717 30.6318302,137.179943 C30.6318302,133.213169 32.0049237,129.865194 34.7511521,127.135917 C37.4973804,124.406641 40.9470661,123.042023 45.1003127,123.042023 C49.2535593,123.042023 52.703245,124.406641 55.4494733,127.135917 C58.1957017,129.865194 59.5687953,133.213169 59.5687953,137.179943 C59.5687953,141.146717 58.1957017,144.486216 55.4494733,147.198541 Z M82.8607637,138.247915 L82.8607637,123.499726 L90.5399934,123.499726 L90.5399934,150.86016 L82.8607637,150.86016 L82.8607637,147.249397 C80.9621367,149.927817 78.5126055,151.267007 75.5120968,151.267007 C72.511588,151.267007 69.9942498,150.326183 67.9600066,148.444508 C65.9257634,146.562833 64.908657,143.774267 64.908657,140.078725 L64.908657,123.499726 L72.5878868,123.499726 L72.5878868,138.400483 C72.5878868,142.604585 74.1304981,144.706605 77.215767,144.706605 C78.7414494,144.706605 80.0636876,144.155673 81.1825214,143.053791 C82.3013552,141.951909 82.8607637,140.349967 82.8607637,138.247915 Z M105.389895,150.86016 L97.7615207,150.86016 L97.7615207,123.499726 L105.389895,123.499726 L105.389895,150.86016 Z M97.100395,116.837612 C97.100395,115.583162 97.5326652,114.523677 98.3972186,113.659123 C99.2617719,112.79457 100.321258,112.3623 101.575708,112.3623 C102.830158,112.3623 103.889643,112.79457 104.754197,113.659123 C105.61875,114.523677 106.05102,115.583162 106.05102,116.837612 C106.05102,118.092062 105.61875,119.151548 104.754197,120.016102 C103.889643,120.880655 102.830158,121.312925 101.575708,121.312925 C100.321258,121.312925 99.2617719,120.880655 98.3972186,120.016102 C97.5326652,119.151548 97.100395,118.092062 97.100395,116.837612 Z M146.357088,150.86016 L138.728714,150.86016 L138.728714,123.499726 L146.357088,123.499726 L146.357088,150.86016 Z M138.067588,116.837612 C138.067588,115.583162 138.499859,114.523677 139.364412,113.659123 C140.228965,112.79457 141.288451,112.3623 142.542901,112.3623 C143.797351,112.3623 144.856837,112.79457 145.72139,113.659123 C146.585944,114.523677 147.018214,115.583162 147.018214,116.837612 C147.018214,118.092062 146.585944,119.151548 145.72139,120.016102 C144.856837,120.880655 143.797351,121.312925 142.542901,121.312925 C141.288451,121.312925 140.228965,120.880655 139.364412,120.016102 C138.499859,119.151548 138.067588,118.092062 138.067588,116.837612 Z M130.232966,148.825927 C128.249579,150.453322 125.73224,151.267007 122.680876,151.267007 C120.646632,151.267007 118.527661,150.902544 116.323897,150.173607 C114.120134,149.444669 112.136776,148.368232 110.373766,146.944262 L113.73025,142.163814 C116.578191,144.367577 119.612558,145.469443 122.833443,145.469443 C123.816661,145.469443 124.596442,145.274497 125.172811,144.884601 C125.74918,144.494704 126.03736,143.977675 126.03736,143.333498 C126.03736,142.689321 125.638993,142.096009 124.842248,141.553544 C124.045503,141.011079 122.892782,140.502526 121.384052,140.027869 C119.875322,139.553212 118.722601,139.14637 117.925856,138.807329 C117.129111,138.468289 116.222191,137.976687 115.205069,137.33251 C113.136922,136.044156 112.102864,134.137082 112.102864,131.61123 C112.102864,129.085378 113.11997,127.025738 115.154213,125.432247 C117.188457,123.838757 119.815981,123.042023 123.036866,123.042023 C126.257751,123.042023 129.478588,124.126937 132.699473,126.296796 L129.851547,131.382379 C127.478263,129.754984 125.113491,128.941299 122.757159,128.941299 C120.400828,128.941299 119.222679,129.585466 119.222679,130.87382 C119.222679,131.585806 119.595618,132.145214 120.341508,132.552063 C121.087397,132.958911 122.324876,133.433561 124.053983,133.976026 C125.78309,134.518491 127.012093,134.933809 127.74103,135.221994 C128.469967,135.510178 129.342984,135.9594 130.360105,136.569673 C132.258732,137.722411 133.208032,139.646437 133.208032,142.341809 C133.208032,145.037182 132.216353,147.198533 130.232966,148.825927 Z M176.424183,150.86016 L169.253511,150.86016 L169.253511,147.554531 C167.287076,150.029527 164.854497,151.267007 161.9557,151.267007 C159.056903,151.267007 156.624324,150.427894 154.657889,148.749643 C152.691454,147.071393 151.708251,144.833759 151.708251,142.036674 C151.708251,139.23959 152.725357,137.146046 154.759601,135.75598 C156.793844,134.365914 159.573935,133.670891 163.099956,133.670891 L168.795809,133.670891 L168.795809,133.518323 C168.795809,130.602575 167.253197,129.144722 164.167928,129.144722 C162.84567,129.144722 161.447149,129.407475 159.972323,129.932988 C158.497496,130.458501 157.251541,131.111144 156.23442,131.890937 L152.827079,126.957922 C156.420909,124.34731 160.523238,123.042023 165.134189,123.042023 C168.456786,123.042023 171.16907,123.87266 173.271121,125.533959 C175.373173,127.195257 176.424183,129.822782 176.424183,133.416612 L176.424183,150.86016 Z M168.744953,140.434716 L168.744953,139.112464 L163.964505,139.112464 C160.91314,139.112464 159.387481,140.061764 159.387481,141.960391 C159.387481,142.943608 159.751944,143.697962 160.480881,144.223475 C161.209818,144.748988 162.252352,145.01174 163.608514,145.01174 C164.964677,145.01174 166.159776,144.596422 167.19385,143.765772 C168.227924,142.935123 168.744953,141.824782 168.744953,140.434716 Z M191.019805,135.603412 L191.019805,150.86016 L183.391431,150.86016 L183.391431,123.499726 L191.019805,123.499726 L191.019805,126.551075 C193.32528,124.211696 195.918902,123.042023 198.800746,123.042023 C201.682591,123.042023 204.098218,124.05913 206.047701,126.093373 C207.997184,128.127616 208.971911,130.8399 208.971911,134.230305 L208.971911,150.86016 L201.343537,150.86016 L201.343537,135.399989 C201.343537,131.195886 199.800926,129.093867 196.715657,129.093867 C195.189975,129.093867 193.859261,129.644799 192.723475,130.746681 C191.587689,131.848563 191.019805,133.467457 191.019805,135.603412 Z M239.129416,150.86016 L231.958745,150.86016 L231.958745,147.554531 C229.99231,150.029527 227.55973,151.267007 224.660934,151.267007 C221.762137,151.267007 219.329558,150.427894 217.363123,148.749643 C215.396688,147.071393 214.413485,144.833759 214.413485,142.036674 C214.413485,139.23959 215.430591,137.146046 217.464834,135.75598 C219.499078,134.365914 222.279168,133.670891 225.80519,133.670891 L231.501042,133.670891 L231.501042,133.518323 C231.501042,130.602575 229.958431,129.144722 226.873162,129.144722 C225.550904,129.144722 224.152383,129.407475 222.677557,129.932988 C221.20273,130.458501 219.956775,131.111144 218.939653,131.890937 L215.532313,126.957922 C219.126143,124.34731 223.228472,123.042023 227.839423,123.042023 C231.16202,123.042023 233.874304,123.87266 235.976355,125.533959 C238.078406,127.195257 239.129416,129.822782 239.129416,133.416612 L239.129416,150.86016 Z M231.450187,140.434716 L231.450187,139.112464 L226.669739,139.112464 C223.618374,139.112464 222.092715,140.061764 222.092715,141.960391 C222.092715,142.943608 222.457178,143.697962 223.186115,144.223475 C223.915052,144.748988 224.957586,145.01174 226.313748,145.01174 C227.66991,145.01174 228.86501,144.596422 229.899084,143.765772 C230.933157,142.935123 231.450187,141.824782 231.450187,140.434716 Z M11.6880349,176.850313 C10.2810167,181.037463 9.5775181,184.953323 9.5775181,188.598009 C9.5775181,192.242694 10.2810167,196.16703 11.6880349,200.371132 C13.0950531,204.575235 14.815658,208.118155 16.8499013,211 L8.61125741,211 C6.94995878,208.66062 5.43277513,205.363501 4.05966096,201.108542 C2.68654679,196.853583 2,192.691923 2,188.623436 C2,184.55495 2.68654679,180.384814 4.05966096,176.112903 C5.43277513,171.840992 6.94995878,168.535397 8.61125741,166.196017 L16.8499013,166.196017 C14.815658,169.111766 13.0950531,172.663162 11.6880349,176.850313 Z M35.9971198,182.8513 C36.8955772,181.579898 37.3447992,180.350895 37.3447992,179.164253 C37.3447992,177.977611 36.9549084,176.985932 36.1751152,176.189187 C35.395322,175.392442 34.3951674,174.994075 33.1746215,174.994075 C30.9369539,174.994075 28.8179824,176.587542 26.8176432,179.774523 L20.4606649,176.011192 C22.1219635,173.434483 23.9442791,171.48503 25.9276662,170.162772 C27.9110534,168.840513 30.4368675,168.179394 33.5051843,168.179394 C36.5735012,168.179394 39.268833,169.154121 41.5912607,171.103604 C43.9136884,173.053087 45.0748848,175.70604 45.0748848,179.062541 C45.0748848,180.89336 44.608711,182.647869 43.6763496,184.326119 C42.7439881,186.00437 41.0233832,188.148769 38.5144832,190.759381 L32.1066491,197.421494 L46.1428571,197.421494 L46.1428571,204.54131 L21.0709348,204.54131 L21.0709348,198.642034 L31.4963792,187.962311 C33.5984305,185.826355 35.0986624,184.122702 35.9971198,182.8513 Z M59.5179394,186.589203 C59.5179394,190.149129 60.0773479,193.013979 61.1961817,195.183838 C62.3150155,197.353697 64.061048,198.438611 66.4343318,198.438611 C68.8076156,198.438611 70.5536481,197.353697 71.6724819,195.183838 C72.7913157,193.013979 73.3507242,190.149129 73.3507242,186.589203 C73.3507242,183.029278 72.7913157,180.164428 71.6724819,177.994569 C70.5536481,175.824709 68.8076156,174.739796 66.4343318,174.739796 C64.061048,174.739796 62.3150155,175.824709 61.1961817,177.994569 C60.0773479,180.164428 59.5179394,183.029278 59.5179394,186.589203 Z M55.3986175,199.938858 C52.9575256,196.599309 51.736998,192.140992 51.736998,186.563776 C51.736998,180.986559 52.9575256,176.528243 55.3986175,173.188693 C57.8397094,169.849144 61.518244,168.179394 66.4343318,168.179394 C71.3504196,168.179394 75.0289542,169.849144 77.4700461,173.188693 C79.9111379,176.528243 81.1316656,180.986559 81.1316656,186.563776 C81.1316656,192.140992 79.9111379,196.599309 77.4700461,199.938858 C75.0289542,203.278407 71.3504196,204.948157 66.4343318,204.948157 C61.518244,204.948157 57.8397094,203.278407 55.3986175,199.938858 Z M85.5561224,168.993088 L99.9483213,168.993088 L99.9483213,204.54131 L92.3199473,204.54131 L92.3199473,175.756912 L85.5561224,175.756912 L85.5561224,168.993088 Z M130.207538,168.993088 L130.207538,175.858624 L116.17133,175.858624 L116.17133,181.808756 C117.222355,181.503619 118.425931,181.351053 119.782093,181.351053 C123.206403,181.351053 126.156011,182.385111 128.631007,184.453259 C131.106003,186.521406 132.343483,189.309973 132.343483,192.819042 C132.343483,196.328112 131.063624,199.226865 128.503868,201.515388 C125.944112,203.803912 122.782606,204.948157 119.019256,204.948157 C114.20488,204.948157 110.18731,203.168221 106.966425,199.608295 L111.136603,193.810731 C111.44174,194.115867 111.848582,194.488806 112.357143,194.929559 C112.865704,195.370312 113.798051,195.955148 115.154213,196.684085 C116.510375,197.413022 117.866517,197.777485 119.222679,197.777485 C120.578842,197.777485 121.782417,197.370643 122.833443,196.556945 C123.884469,195.743248 124.409974,194.539672 124.409974,192.946182 C124.409974,191.352691 123.842089,190.123688 122.706303,189.259134 C121.570518,188.394581 120.104189,187.962311 118.307275,187.962311 C116.51036,187.962311 114.425292,188.606478 112.052008,189.894832 L108.746379,186.334924 L108.746379,168.993088 L130.207538,168.993088 Z M141.217824,200.371132 C142.624842,196.16703 143.328341,192.242694 143.328341,188.598009 C143.328341,184.953323 142.624842,181.037463 141.217824,176.850313 C139.810806,172.663162 138.090201,169.111766 136.055958,166.196017 L144.294602,166.196017 C145.9559,168.535397 147.473084,171.840992 148.846198,176.112903 C150.219312,180.384814 150.905859,184.55495 150.905859,188.623436 C150.905859,192.691923 150.219312,196.853583 148.846198,201.108542 C147.473084,205.363501 145.9559,208.66062 144.294602,211 L136.055958,211 C138.090201,208.118155 139.810806,204.575235 141.217824,200.371132 Z" id="Industrial-Pollution-Copy-2"></path>
        </g>
    </g>
</svg>